<?xml version="1.0" encoding="utf-8"?>
<!-- Generator: Adobe Illustrator 19.2.1, SVG Export Plug-In . SVG Version: 6.00 Build 0)  -->
<svg version="1.1" id="Layer_1" xmlns="http://www.w3.org/2000/svg" xmlns:xlink="http://www.w3.org/1999/xlink" x="0px" y="0px"
	 viewBox="0 0 60 60" style="enable-background:new 0 0 60 60;" xml:space="preserve">
<style type="text/css">
	.st0{opacity:0.54;}
</style>
<title>icon_tripadvisor_hover</title>
<g class="st0">
	<path d="M39.9,28.4c-1.8,0-3.3,1.4-3.4,3.3c0,1.8,1.4,3.3,3.3,3.4c1.8,0,3.3-1.4,3.4-3.3c0,0,0,0,0-0.1
		C43.1,29.9,41.7,28.4,39.9,28.4z M39.6,33.3c-0.9,0-1.6-0.7-1.6-1.6c0-0.9,0.7-1.6,1.6-1.6c0.9,0,1.6,0.7,1.6,1.6
		C41.3,32.6,40.5,33.3,39.6,33.3C39.6,33.3,39.6,33.3,39.6,33.3z"/>
	<path d="M39.6,21.9c-3-1.3-6.3-1.9-9.6-1.9c-3.4,0-6.7,0.6-9.9,1.9c5.4,0,9.9,4.4,9.9,9.9C30,26.4,34.2,22.1,39.6,21.9z"/>
	<path d="M20.1,23.8c-4.4,0-7.9,3.6-7.9,8c0,4.4,3.6,7.9,8,7.9c4.4,0,7.9-3.6,7.9-8C28.1,27.4,24.5,23.8,20.1,23.8
		C20.2,23.8,20.1,23.8,20.1,23.8z M20,36.5c-2.7,0-4.8-2.1-4.8-4.8c0-2.7,2.1-4.8,4.8-4.8c2.7,0,4.8,2.1,4.8,4.8c0,0,0,0,0,0
		C24.8,34.4,22.7,36.5,20,36.5C20,36.5,20,36.5,20,36.5L20,36.5z"/>
	<path d="M20,28.4c-1.8,0-3.3,1.5-3.3,3.3c0,1.8,1.5,3.3,3.3,3.3s3.3-1.5,3.3-3.3C23.3,29.9,21.8,28.4,20,28.4L20,28.4z M19.8,33.4
		c-0.9,0-1.6-0.7-1.6-1.6c0-0.9,0.7-1.6,1.6-1.6c0.9,0,1.6,0.7,1.6,1.6C21.4,32.6,20.7,33.4,19.8,33.4L19.8,33.4z"/>
	<path d="M39.9,23.8c-4.4,0-7.9,3.6-7.9,8s3.6,7.9,7.9,7.9s8-3.6,8-7.9S44.3,23.8,39.9,23.8L39.9,23.8z M39.9,36.5
		c-2.7,0-4.8-2.1-4.8-4.8c0-2.7,2.1-4.8,4.8-4.8c2.7,0,4.8,2.1,4.8,4.8c0,0,0,0,0,0C44.6,34.4,42.5,36.5,39.9,36.5L39.9,36.5z"/>
	<path d="M50.6,0H9.4C4.2,0,0,4.2,0,9.4v41.3C0,55.8,4.2,60,9.4,60h41.3c5.2,0,9.4-4.2,9.4-9.4V9.4C60,4.2,55.8,0,50.6,0z
		 M49.7,31.8c0,5.4-4.4,9.9-9.8,9.9c-3,0-5.8-1.3-7.7-3.7c-0.8,1-2.2,3.1-2.2,3.1C29.3,40,28.6,39,27.8,38c-3.4,4.3-9.6,5-13.9,1.6
		c-4.2-3.3-5-9.3-1.8-13.6c-0.3-1.5-1-2.8-2-3.9h6.3c4.1-2.5,8.8-3.8,13.5-3.8c4.7-0.1,9.3,1.2,13.2,3.8h6.6c-1,1.1-1.6,2.5-2,3.9
		C49.1,27.6,49.7,29.7,49.7,31.8z"/>
</g>
</svg>
